<?xml version="1.0" encoding="UTF-8"?><svg id="Calque_2" xmlns="http://www.w3.org/2000/svg" xmlns:xlink="http://www.w3.org/1999/xlink" viewBox="0 0 215.52 261.86"><defs><style>.cls-1{fill:none;}.cls-2{fill:#ca9e5a;}.cls-3{fill:url(#Dégradé_sans_nom_3);}</style><linearGradient id="Dégradé_sans_nom_3" x1="-104.78" y1="-71.9" x2="630.54" y2="485.7" gradientTransform="translate(6.33 31.05) rotate(-.32)" gradientUnits="userSpaceOnUse"><stop offset="0" stop-color="#dab967"/><stop offset=".62" stop-color="#bc874d"/><stop offset="1" stop-color="#ae6e41"/></linearGradient></defs><g id="Calque_1-2"><g><path class="cls-1" d="M184.89,179.87c9.18-22.12,11.42-46.21,6.48-69.64l-.37-1.78c-4.3-20.38-3.32-41.66,2.84-61.56l12.36-39.93c-16.53,.47-72.31,3.19-96.46,18.43l-1.71,1.08-1.77-.98C79.16,10.55,25.71,8.39,9.52,8.08l12.95,38.64c6.89,20.56,8.2,42.66,3.79,63.89-4.91,23.62-2.53,47.85,6.88,70.07,9.41,22.22,25.15,40.78,45.53,53.7l30.54,19.35,30.94-20.09c20.09-13.05,35.56-31.64,44.74-53.76Zm-99.87-11.33c-5.65,.03-11.1-1.01-16.33-3.09-5.25-2.08-9.85-5.09-13.77-8.96-3.97-3.92-7.12-8.72-9.5-14.35-2.35-5.64-3.55-11.94-3.59-18.94-.04-6.72,1.05-12.96,3.23-18.75,2.21-5.77,5.31-10.77,9.36-15.04,.66-.69,1.49-1.43,2.4-2.18,6.11-4.9,13.14-7.94,20.74-9.81,16.57-4.12,66.19-7.35,89.24,9.38l2.55-4.26,4.99-.03,.73,30.9-5.12,.03c-.88-3.38-2-6.73-3.29-10.03-1.32-3.3-2.99-6.24-5.06-8.86-.28-.36-.64-.76-1.05-1.16-3.28-3.21-18.18-10.8-43.64-11.6,0,0,.24,24.18,.52,33.77l3.33-.02c3.21-.02,5.57-.34,7.07-.96,1.47-.59,2.79-1.62,3.9-3.08,.91-1.2,1.69-2.83,2.34-4.87,.62-2.04,1.05-3.95,1.24-5.76l4.73-.03,.2,34.97-4.73,.03c-.16-2.01-.63-4.14-1.38-6.38-.75-2.24-1.52-3.86-2.32-4.85-1.31-1.65-2.79-2.71-4.45-3.18-1.66-.5-3.85-.74-6.57-.73l-3.44,.02c-1.02,0-3.11,0-5.4,.03-2.98,.02-6.29,.09-8.22,.22l-.22-39.12c-7.84,.3-40,.91-44.64,23.36-1.08,5.24-2,10.93-1.96,17.29,.03,5.6,.72,10.89,2.1,15.85,1.38,4.96,3.39,9.25,5.98,12.84,2.59,3.7,5.84,6.59,9.72,8.68,3.88,2.09,8.26,3.13,13.18,3.11,3.67-.02,7-.6,10.02-1.74,3-1.14,5.13-2.35,6.37-3.6,.32-2.14,.48-4.33,.5-6.54-.01-2.19,0-4.07,0-5.6l-.03-4.86c0-1.73-.27-3.28-.74-4.63-.49-1.35-1.49-2.33-2.99-2.94-1.38-.63-3.24-1.08-5.58-1.39-2.34-.29-4.18-.46-5.5-.55l-.03-4.53,38.74-.22,.03,4.53c-.99,.13-2.34,.34-4.02,.61-1.68,.29-3.03,.68-4.07,1.19-1.24,.62-2.13,1.51-2.63,2.66-.53,1.15-.78,2.47-.77,4.03l.04,6.85c.01,2.16,.02,4,.06,5.55l.39,10.43c.56,.02,37.7,.04,39.4-.43,1.68-.44,2.9-1.03,3.6-1.8,1.92-2.02,3.92-5.09,6.01-9.2,2.12-4.08,3.45-7.12,4.02-9.03l4.53-.03-1.56,26.3-88.65,.5Z"/><path class="cls-3" d="M175.23,141.74l-4.53,.03c-.58,1.91-1.91,4.95-4.02,9.03-2.09,4.11-4.08,7.18-6.01,9.2-.71,.77-1.93,1.36-3.6,1.8-1.7,.47-38.84,.45-39.4,.43l-.39-10.43c-.03-1.55-.04-3.38-.06-5.55l-.04-6.85c0-1.55,.24-2.88,.77-4.03,.5-1.15,1.39-2.04,2.63-2.66,1.04-.52,2.39-.9,4.07-1.19,1.68-.26,3.03-.48,4.02-.61l-.03-4.53-38.74,.22,.03,4.53c1.32,.09,3.16,.26,5.5,.55,2.34,.32,4.2,.76,5.58,1.39,1.5,.6,2.5,1.59,2.99,2.94,.47,1.35,.73,2.9,.74,4.63l.03,4.86c0,1.53,0,3.41,0,5.6-.01,2.21-.18,4.4-.5,6.54-1.24,1.26-3.37,2.46-6.37,3.6-3.02,1.14-6.35,1.71-10.02,1.74-4.91,.03-9.3-1.02-13.18-3.11-3.88-2.09-7.13-4.97-9.72-8.68-2.59-3.6-4.6-7.89-5.98-12.84-1.38-4.96-2.07-10.25-2.1-15.85-.04-6.36,.88-12.06,1.96-17.29,4.64-22.45,36.8-23.06,44.64-23.36l.22,39.12c1.93-.14,5.24-.21,8.22-.22,2.29-.04,4.38-.02,5.4-.03l3.44-.02c2.72-.02,4.91,.23,6.57,.73,1.66,.47,3.14,1.53,4.45,3.18,.79,.99,1.57,2.61,2.32,4.85,.75,2.24,1.22,4.37,1.38,6.38l4.73-.03-.2-34.97-4.73,.03c-.19,1.81-.62,3.72-1.24,5.76-.65,2.04-1.43,3.67-2.34,4.87-1.11,1.46-2.43,2.48-3.9,3.08-1.5,.62-3.86,.94-7.07,.96l-3.33,.02c-.28-9.59-.52-33.77-.52-33.77,25.46,.79,40.37,8.38,43.64,11.6,.41,.41,.77,.81,1.05,1.16,2.08,2.61,3.75,5.55,5.06,8.86,1.29,3.3,2.4,6.65,3.29,10.03l5.12-.03-.73-30.9-4.99,.03-2.55,4.26c-23.05-16.73-72.67-13.49-89.24-9.38-7.6,1.88-14.63,4.92-20.74,9.81-.91,.74-1.75,1.49-2.4,2.18-4.05,4.27-7.15,9.28-9.36,15.04-2.18,5.79-3.27,12.03-3.23,18.75,.04,7,1.25,13.3,3.59,18.94,2.37,5.64,5.53,10.43,9.5,14.35,3.92,3.87,8.52,6.88,13.77,8.96,5.23,2.08,10.68,3.12,16.33,3.09l88.65-.5,1.56-26.3Z"/><path class="cls-2" d="M191.21,182.5c9.71-23.41,12.08-48.88,6.85-73.68l-.38-1.78c-4.06-19.24-3.13-39.34,2.68-58.12L215.52,0l-4.67,.03c-2.98,.02-72.08,.61-103.04,18.54C73.68,1.01,7.57,1.17,4.73,1.19l-4.73,.03L15.98,48.9c6.51,19.42,7.75,40.28,3.58,60.33-5.19,24.99-2.68,50.62,7.28,74.13,9.95,23.5,26.61,43.15,48.17,56.81l34.25,21.7,34.62-22.48c21.25-13.8,37.62-33.47,47.33-56.87Zm-51.06,51.14l-30.94,20.09-30.54-19.35c-20.38-12.91-36.13-31.48-45.53-53.7-9.41-22.22-11.79-46.45-6.88-70.07,4.41-21.23,3.1-43.33-3.79-63.89L9.52,8.08c16.19,.31,69.65,2.47,96.74,17.42l1.77,.98,1.71-1.08c24.15-15.24,79.93-17.95,96.46-18.43l-12.36,39.93c-6.16,19.89-7.14,41.18-2.84,61.56l.37,1.78c4.95,23.44,2.71,47.52-6.48,69.64-9.18,22.12-24.65,40.71-44.74,53.76l1.86,2.87-1.86-2.87Z"/></g></g></svg>